<svg width="68" height="111" fill="none" xmlns="http://www.w3.org/2000/svg"><circle cx="1.5" cy="32.5" r="1.5" fill="#C4C4C4" fill-opacity=".29"/><circle cx="1.5" cy="37.5" r="1.5" fill="#C4C4C4" fill-opacity=".29"/><circle cx="1.5" cy="42.5" r="1.5" fill="#C4C4C4" fill-opacity=".29"/><circle cx="1.5" cy="47.5" r="1.5" fill="#C4C4C4" fill-opacity=".29"/><circle cx="1.5" cy="52.5" r="1.5" fill="#C4C4C4" fill-opacity=".29"/><circle cx="8.5" cy="27.5" r="1.5" fill="#C4C4C4" fill-opacity=".29"/><circle cx="8.5" cy="32.5" r="1.5" fill="#C4C4C4" fill-opacity=".29"/><circle cx="8.5" cy="37.5" r="1.5" fill="#C4C4C4" fill-opacity=".29"/><circle cx="8.5" cy="42.5" r="1.5" fill="#C4C4C4" fill-opacity=".29"/><circle cx="8.5" cy="47.5" r="1.5" fill="#C4C4C4" fill-opacity=".29"/><circle cx="6.5" cy="55.5" r="1.5" fill="#C4C4C4" fill-opacity=".29"/><circle cx="6.5" cy="60.5" r="1.5" fill="#C4C4C4" fill-opacity=".29"/><circle cx="6.5" cy="65.5" r="1.5" fill="#C4C4C4" fill-opacity=".29"/><circle cx="6.5" cy="70.5" r="1.5" fill="#C4C4C4" fill-opacity=".29"/><circle cx="6.5" cy="75.5" r="1.5" fill="#C4C4C4" fill-opacity=".29"/><circle cx="68.75" cy="23.024" r=".9" transform="rotate(72.622 68.75 23.024)" fill="#C4C4C4" fill-opacity=".29"/><circle cx="65.887" cy="23.92" r=".9" transform="rotate(72.622 65.887 23.92)" fill="#C4C4C4" fill-opacity=".29"/><circle cx="63.024" cy="24.816" r=".9" transform="rotate(72.622 63.024 24.816)" fill="#C4C4C4" fill-opacity=".29"/><circle cx="60.161" cy="25.712" r=".9" transform="rotate(72.622 60.16 25.712)" fill="#C4C4C4" fill-opacity=".29"/><circle cx="57.298" cy="26.608" r=".9" transform="rotate(72.622 57.298 26.608)" fill="#C4C4C4" fill-opacity=".29"/><circle cx="67.141" cy="27.928" r=".9" transform="rotate(72.622 67.141 27.928)" fill="#C4C4C4" fill-opacity=".29"/><circle cx="64.278" cy="28.824" r=".9" transform="rotate(72.622 64.278 28.824)" fill="#C4C4C4" fill-opacity=".29"/><circle cx="61.415" cy="29.72" r=".9" transform="rotate(72.622 61.415 29.72)" fill="#C4C4C4" fill-opacity=".29"/><circle cx="56.476" cy="30.009" r=".9" transform="rotate(72.622 56.476 30.009)" fill="#C4C4C4" fill-opacity=".29"/><circle cx="53.613" cy="30.905" r=".9" transform="rotate(72.622 53.613 30.905)" fill="#C4C4C4" fill-opacity=".29"/><circle cx="50.75" cy="31.801" r=".9" transform="rotate(72.622 50.75 31.8)" fill="#C4C4C4" fill-opacity=".29"/><circle cx="47.887" cy="32.697" r=".9" transform="rotate(72.622 47.887 32.697)" fill="#C4C4C4" fill-opacity=".29"/><circle cx="45.024" cy="33.593" r=".9" transform="rotate(72.622 45.024 33.593)" fill="#C4C4C4" fill-opacity=".29"/><circle cx="42.5" cy="96.5" r="1.5" transform="rotate(90 42.5 96.5)" fill="#C4C4C4" fill-opacity=".29"/><circle cx="37.5" cy="96.5" r="1.5" transform="rotate(90 37.5 96.5)" fill="#C4C4C4" fill-opacity=".29"/><circle cx="32.5" cy="96.5" r="1.5" transform="rotate(90 32.5 96.5)" fill="#C4C4C4" fill-opacity=".29"/><circle cx="27.5" cy="96.5" r="1.5" transform="rotate(90 27.5 96.5)" fill="#C4C4C4" fill-opacity=".29"/><circle cx="22.5" cy="96.5" r="1.5" transform="rotate(90 22.5 96.5)" fill="#C4C4C4" fill-opacity=".29"/><circle cx="50.5" cy="109.5" r="1.5" transform="rotate(90 50.5 109.5)" fill="#C4C4C4" fill-opacity=".29"/><circle cx="45.5" cy="109.5" r="1.5" transform="rotate(90 45.5 109.5)" fill="#C4C4C4" fill-opacity=".29"/><circle cx="40.5" cy="109.5" r="1.5" transform="rotate(90 40.5 109.5)" fill="#C4C4C4" fill-opacity=".29"/><circle cx="35.5" cy="109.5" r="1.5" transform="rotate(90 35.5 109.5)" fill="#C4C4C4" fill-opacity=".29"/><circle cx="30.5" cy="109.5" r="1.5" transform="rotate(90 30.5 109.5)" fill="#C4C4C4" fill-opacity=".29"/><circle cx="60.5" cy="103.5" r="1.5" transform="rotate(90 60.5 103.5)" fill="#C4C4C4" fill-opacity=".29"/><circle cx="55.5" cy="103.5" r="1.5" transform="rotate(90 55.5 103.5)" fill="#C4C4C4" fill-opacity=".29"/><circle cx="50.5" cy="103.5" r="1.5" transform="rotate(90 50.5 103.5)" fill="#C4C4C4" fill-opacity=".29"/><circle cx="45.5" cy="103.5" r="1.5" transform="rotate(90 45.5 103.5)" fill="#C4C4C4" fill-opacity=".29"/><circle cx="40.5" cy="103.5" r="1.5" transform="rotate(90 40.5 103.5)" fill="#C4C4C4" fill-opacity=".29"/><circle cx="57" cy="42" r="39.5" stroke="#fff" stroke-opacity=".14" stroke-width="5"/></svg>