<svg width="30" height="30" fill="none"><path d="m26.918 7.025-3.75-3.75a.95.95 0 0 0-1.336 0l-11.25 11.25a.95.95 0 0 0-.27.668v3.75a.938.938 0 0 0 .938.937H15a.95.95 0 0 0 .668-.27l11.25-11.25a.95.95 0 0 0 0-1.335Zm-12.305 10.98h-2.425V15.58l7.5-7.5 2.425 2.425-7.5 7.5Zm8.825-8.824-2.426-2.426L22.5 5.267l2.426 2.426-1.488 1.488Zm2.812 5.074v10.313a1.875 1.875 0 0 1-1.875 1.875H5.625a1.875 1.875 0 0 1-1.875-1.875V5.818a1.875 1.875 0 0 1 1.875-1.875h10.313a.938.938 0 0 1 0 1.875H5.624v18.75h18.75V14.255a.937.937 0 1 1 1.875 0Z" fill="#3E3E70"/></svg>